<svg xmlns="http://www.w3.org/2000/svg" data-name="Layer 1" viewBox="0 0 95 118.75" x="0px" y="0px"><defs><style>.cls-1{fill-rule:evenodd;}</style></defs><title>a</title><path class="cls-1" d="M33.562,74.092l2.721-10.2a1.052,1.052,0,0,0-.469-1.171l-7.958-4.868L38.925,45.8,36.2,56a1.052,1.052,0,0,0,.469,1.171l7.958,4.869L33.562,74.092ZM46.826,60.911l-8.381-5.126L42.07,42.2a1.056,1.056,0,0,0-1.8-.987L25.435,57.367a1.053,1.053,0,0,0,.226,1.612l8.381,5.127L30.417,77.692a1.055,1.055,0,0,0,1.8.985L47.052,62.523a1.051,1.051,0,0,0-.226-1.612ZM90.392,27.44a4,4,0,0,1-7.995,0V22.681h7.995V27.44ZM10.384,81.906H62.1V11.326a4.921,4.921,0,0,0-4.916-4.915H15.3a4.92,4.92,0,0,0-4.914,4.915v70.58Zm57.492,6.683H4.611V84.015H67.876v4.574ZM91.445,20.572h-.871V16.5a1.053,1.053,0,1,0-2.106,0v4.071H84.321V16.5a1.053,1.053,0,1,0-2.106,0v4.071h-.871a1.055,1.055,0,0,0-1.056,1.055V27.44a6.112,6.112,0,0,0,5.054,6.013V63.612a5.465,5.465,0,1,1-10.93,0V36.1a4.67,4.67,0,0,0-4.664-4.665H64.213V11.326A7.034,7.034,0,0,0,57.188,4.3H15.3a7.033,7.033,0,0,0-7.024,7.024v70.58H3.556A1.054,1.054,0,0,0,2.5,82.961v6.682A1.055,1.055,0,0,0,3.556,90.7H68.931a1.055,1.055,0,0,0,1.055-1.055V82.961a1.055,1.055,0,0,0-1.055-1.055H64.213V33.547h5.535A2.557,2.557,0,0,1,72.3,36.1v27.51a7.573,7.573,0,1,0,15.146,0V33.453A6.11,6.11,0,0,0,92.5,27.44V21.627a1.054,1.054,0,0,0-1.053-1.055Zm-36.262,15.3H17.3V13.332H55.183V35.874Zm1.055-24.652a1.054,1.054,0,0,1,1.055,1.055V36.929a1.054,1.054,0,0,1-1.055,1.054H16.249a1.053,1.053,0,0,1-1.055-1.054V12.277a1.053,1.053,0,0,1,1.055-1.055Z"/></svg>