<svg xmlns:dc="http://purl.org/dc/elements/1.1/" xmlns:cc="http://creativecommons.org/ns#" xmlns:rdf="http://www.w3.org/1999/02/22-rdf-syntax-ns#" xmlns:svg="http://www.w3.org/2000/svg" xmlns="http://www.w3.org/2000/svg" xmlns:sodipodi="http://sodipodi.sourceforge.net/DTD/sodipodi-0.dtd" xmlns:inkscape="http://www.inkscape.org/namespaces/inkscape" version="1.1" x="0px" y="0px" viewBox="0 0 100 125"><g transform="translate(0,-952.36218)"><path style="text-indent:0;text-transform:none;direction:ltr;block-progression:tb;baseline-shift:baseline;color:#000000;enable-background:accumulate;" d="m 49.854788,964.36222 c -14.39591,0 -25.63322,3.4006 -33.60377,9.7832 -7.9705596,6.3828 -12.6145096,15.7101 -13.9729197,27.19298 -1.6e-4,0.01 -1.6e-4,0.021 0,0.031 -1.80708991,18.3308 5.5858201,24.2585 10.8157297,33.1004 0.18389,0.2935 0.52905,0.4783 0.87526,0.4688 27.55962,-0.9018 59.59449,-0.8442 78.86726,5.3761 0.41729,0.139 0.91799,-0.037 1.15659,-0.4064 6.401222,-10.2035 4.604046,-22.2539 -1.65674,-31.5063 -0.006,-0.021 -0.025,-0.041 -0.0312,-0.062 -2.7235,-9.17136 -8.39002,-20.07668 -15.81721,-28.75578 -7.4821,-8.2206 -15.48449,-15.222 -26.63299,-15.222 z m 0,2.0004 c 8.81228,0 17.39005,5.7547 24.5073,13.8466 -3.4438,2.264 -9.17448,3.6853 -15.22329,4.9072 -1.07576,-2.017 -3.00668,-3.6498 -5.3766,-4.876 -5.18757,-2.3196 -10.19306,-3.154 -15.41084,-2.7194 -5.44015,0.4713 -10.57415,2.4679 -13.44151,6.564 -5.21101,7.2946 -5.2269,15.78072 -1.06282,23.06698 2.33404,4.1843 7.93044,6.2487 15.06699,7.3141 8.97775,1.0112 16.51198,0.9011 24.56983,0.9066 7.91969,0 16.92299,-0.5299 23.44449,-1.0314 2.65704,-0.982 3.40687,-2.2238 4.25127,-4.1569 0.96489,1.5044 1.80734,3.0707 2.50074,4.6885 -1.57021,0.8305 -2.86785,1.7635 -4.06371,2.9068 -1.2213,1.409 -0.53684,2.8877 0.1563,4.2508 1.87373,3.5542 3.96027,7.3945 4.81393,11.0022 -17.12105,-4.2738 -38.34892,-6.4142 -60.64308,-6.0012 -7.42608,0.1377 -14.95898,0.5685 -22.506709,1.2816 -4.4731606,-6.5395 -8.5583407,-12.5545 -7.1583806,-26.7554 1.31109,-11.08268 5.6944504,-19.82068 13.2226896,-25.84888 7.56476,-6.7519 21.49534,-9.3462 32.3534,-9.3462 z m 2.96963,15.6594 c 1.88618,0.976 3.35998,2.1702 4.25127,3.5007 -1.89941,0.3686 -3.79829,0.7324 -5.65794,1.094 -4.51861,0.8786 -8.75844,1.8093 -11.97232,3.2194 -2.84713,1.291 -5.54796,3.4854 -5.59541,6.5325 0,3.78648 1.61715,7.00738 3.96993,9.75198 2.32888,2.7169 5.37464,4.9947 8.3775,7.0014 -2.46517,-0.1263 -4.81883,-0.3038 -6.97083,-0.6251 -5.15779,-0.5313 -11.34295,-2.5071 -13.62907,-6.3448 -3.8383,-6.71626 -3.85418,-14.20218 0.93778,-20.91038 2.53201,-3.2822 7.5335,-5.2826 12.03484,-5.7197 4.75478,-0.4242 10.19009,0.4455 14.25425,2.5 z m 22.85056,-0.2813 c 6.62471,7.9967 11.76857,17.85122 14.41055,26.22408 -1.50045,-0.6067 -5.50649,-2.7486 -7.90861,-3.5637 -0.7373,-0.16 -1.0059,0.3835 -1.31289,0.8129 -0.21329,1.4929 -0.89007,2.4664 -2.03185,3.2819 -4.5709,2.6284 -10.31111,2.8845 -14.94196,3.9696 -1.46886,-1.9251 -3.29545,-4.2803 -4.90771,-6.689 -1.87045,-2.7942 -3.25097,-5.6356 -3.25097,-7.12636 0,-1.5835 1.10981,-3.47312 2.25067,-5.50112 1.03251,-1.8353 2.10479,-3.8731 1.8443,-6.0636 5.47262,-1.5989 11.5886,-2.5033 15.84847,-5.3447 z m -17.81781,5.72 c 0.1017,1.4011 -0.64727,2.9494 -1.62548,4.6883 -1.10981,1.9729 -2.50075,4.0842 -2.50075,6.50132 0,2.51006 1.65684,5.35646 3.59482,8.25166 1.53134,2.2878 3.13569,4.2745 4.5326,6.095 -4.79535,-0.075 -10.07012,0.9872 -14.41054,-1.4383 -2.92219,-2.1557 -6.00834,-4.3271 -8.09616,-6.7198 -2.14857,-2.5065 -3.50105,-5.25546 -3.50105,-8.47048 0.27243,-2.547 2.43123,-3.8237 4.37631,-4.6884 2.91294,-1.278 7.08188,-2.2226 11.56594,-3.0943 2.11163,-0.4101 4.2567,-0.7871 6.06431,-1.125 z m -14.00417,6.8763 c -2.19801,0 -4.0012,1.8342 -4.0012,4.03202 0,2.19776 1.80319,4.00086 4.0012,4.00086 2.198,0 3.96993,-1.8031 3.96993,-4.00086 0,-2.19782 -1.77193,-4.03202 -3.96993,-4.03202 z m 0,2.0316 c 1.11678,0 2.00059,0.88382 2.00059,2.00042 0,1.1167 -0.88381,1.96916 -2.00059,1.96916 -1.11679,0 -2.03186,-0.85246 -2.03186,-1.96916 0,-1.1166 0.91507,-2.00042 2.03186,-2.00042 z m 38.54274,10.31458 c 2.23723,0.8381 4.91364,1.971 6.68949,3.282 -0.48273,1.2047 -1.63916,2.1048 -2.50074,2.4067 -4.6686,0.3567 -10.59168,0.7008 -16.44241,0.8751 3.38779,-0.682 7.16903,-1.2591 9.84669,-3.1256 1.15188,-0.8227 1.9249,-2.0419 2.40697,-3.4382 z m 12.00358,10.0645 c 1.46554,4.1537 1.98477,8.5513 1.31289,12.8776 -1.14383,-3.1519 -2.69245,-5.6325 -4.15749,-8.5017 -0.5834,-0.6685 -0.48306,-1.4319 -0.46889,-2.0004 0.97036,-0.9811 2.20679,-1.713 3.31349,-2.3755 z m -54.73507,12.2213 c 20.10789,0.028 39.08469,2.1606 54.54751,6.0324 -0.43885,1.0769 -0.95042,2.144 -1.56297,3.1882 -19.79659,-6.1319 -51.04612,-6.1258 -78.17955,-5.2511 -0.58022,-0.9544 -1.18713,-1.8636 -1.78178,-2.7505 9.0719,-0.8223 18.13175,-1.2313 26.97679,-1.219 z" fill="#000000" fill-opacity="1" stroke="none" marker="none" visibility="visible" display="inline" overflow="visible"/></g></svg>