<svg xmlns:dc="http://purl.org/dc/elements/1.1/" xmlns:cc="http://creativecommons.org/ns#" xmlns:rdf="http://www.w3.org/1999/02/22-rdf-syntax-ns#" xmlns:svg="http://www.w3.org/2000/svg" xmlns="http://www.w3.org/2000/svg" xmlns:sodipodi="http://sodipodi.sourceforge.net/DTD/sodipodi-0.dtd" xmlns:inkscape="http://www.inkscape.org/namespaces/inkscape" version="1.1" x="0px" y="0px" viewBox="0 0 100 125"><g transform="translate(0,-952.36218)"><path style="text-indent:0;text-transform:none;direction:ltr;block-progression:tb;baseline-shift:baseline;color:#000000;enable-background:accumulate;" d="m 49.965592,958.36219 c -24.282212,0 -43.9656005,19.7203 -43.9656005,44.00001 0.413362,24.8497 18.6306365,43.6216 43.9656005,44 23.8978,-0.1042 43.795736,-18.3646 44.034417,-44 0,-24.28219 -19.752205,-44 -44.034417,-44 z m 0,4.40344 c 21.901925,0 39.630969,17.69462 39.630969,39.59657 0,10.1082 -3.795237,19.298 -10.011012,26.283 -4.128767,-7.8191 -11.201456,-13.8426 -19.781007,-16.4785 4.918287,-3.2165 8.187625,-8.7662 8.187625,-15.06804 0,-9.92354 -8.102976,-17.99213 -18.026575,-17.99213 -9.889901,0 -17.992239,8.06205 -17.992239,17.99213 0,6.30434 3.270224,11.85244 8.187767,15.06804 -8.580118,2.6358 -15.673925,8.6552 -19.781149,16.4785 -6.204437,-6.9842 -9.976535,-16.1758 -9.976535,-26.283 0,-21.90443 17.660232,-39.59657 39.562156,-39.59657 z m 0,20.74433 c 7.551461,0 13.62313,6.0372 13.62313,13.5887 0,7.55154 -6.071669,13.58874 -13.62313,13.58874 -7.507204,0 -13.588795,-6.0437 -13.588795,-13.58874 0,-7.5449 6.081591,-13.5887 13.588795,-13.5887 z m 0,31.58094 c 11.67913,0 21.698398,6.9149 26.351823,16.8225 -6.998138,6.2262 -16.225015,10.0453 -26.351822,10.0453 -10.118657,0 -19.330334,-3.7938 -26.317381,-10.0109 4.60885,-9.9298 14.618338,-16.8569 26.317381,-16.8569 z" fill="#000000" fill-opacity="1" fill-rule="evenodd" stroke="none" marker="none" visibility="visible" display="inline" overflow="visible"/></g><text x="0" y="115" fill="#000000" font-size="5px" font-weight="bold" font-family="'Helvetica Neue', Helvetica, Arial-Unicode, Arial, Sans-serif"></text><text x="0" y="120" fill="#000000" font-size="5px" font-weight="bold" font-family="'Helvetica Neue', Helvetica, Arial-Unicode, Arial, Sans-serif"></text></svg>