<svg xmlns="http://www.w3.org/2000/svg" viewBox="0 0 64 80" fill="none" x="0px" y="0px"><path d="M14 7C14 8.10457 14.8954 9 16 9L48 9C49.1046 9 50 8.10457 50 7C50 5.89543 49.1046 5 48 5H16C14.8954 5 14 5.89543 14 7Z" fill="black"/><path d="M32 12C30.8954 12 30 12.8954 30 14V16C30 17.1046 30.8954 18 32 18C33.1046 18 34 17.1046 34 16V14C34 12.8954 33.1046 12 32 12Z" fill="black"/><path d="M38.7679 13.134C38.2157 12.1774 38.5434 10.9543 39.5 10.402C40.4566 9.8497 41.6798 10.1774 42.2321 11.134L43.2321 12.8661C43.7843 13.8227 43.4566 15.0459 42.5 15.5981C41.5434 16.1504 40.3202 15.8227 39.7679 14.8661L38.7679 13.134Z" fill="black"/><path d="M22 15.598C21.0434 15.0457 20.7157 13.8226 21.268 12.866L22.268 11.1339C22.8202 10.1773 24.0434 9.84958 25 10.4019C25.9566 10.9542 26.2843 12.1773 25.732 13.1339L24.732 14.866C24.1798 15.8226 22.9566 16.1503 22 15.598Z" fill="black"/><path fill-rule="evenodd" clip-rule="evenodd" d="M28.2479 25C23.6795 25 19.3984 27.229 16.7786 30.9715L13.9587 35H10C5.58172 35 2 38.5817 2 43V47C2 51.4183 5.58172 55 10 55H14.6736C15.7971 57.365 18.2076 59 21 59C23.7924 59 26.2029 57.365 27.3264 55H41.6736C42.7971 57.365 45.2076 59 48 59C50.795 59 53.2074 57.3619 54.3295 54.9933C58.595 54.8205 62 51.3079 62 47V42C62 37.5817 58.4183 34 54 34H53.6667L45.4 27.8C42.9767 25.9825 40.0292 25 37 25H28.2479ZM48 45C44.4735 45 41.5561 47.6077 41.0709 51H27.9291C27.4439 47.6077 24.5265 45 21 45C17.4735 45 14.5561 47.6077 14.0709 51H10C7.79086 51 6 49.2091 6 47V43C6 40.7909 7.79086 39 10 39H15C15.6526 39 16.2642 38.6816 16.6385 38.1469L20.0555 33.2654C21.9268 30.5921 24.9847 29 28.2479 29H37C39.1637 29 41.269 29.7018 43 31L51.8 37.6C52.1462 37.8596 52.5673 38 53 38H54C56.2091 38 58 39.7909 58 42V47C58 48.8949 56.6824 50.4821 54.9133 50.8953C54.3836 47.5542 51.4901 45 48 45ZM18 52C18 50.3431 19.3431 49 21 49C22.6569 49 24 50.3431 24 52C24 53.6569 22.6569 55 21 55C19.3431 55 18 53.6569 18 52ZM48 49C46.3431 49 45 50.3431 45 52C45 53.6569 46.3431 55 48 55C49.6569 55 51 53.6569 51 52C51 50.3431 49.6569 49 48 49Z" fill="black"/></svg>