<svg xmlns="http://www.w3.org/2000/svg" xmlns:xlink="http://www.w3.org/1999/xlink" viewBox="0 0 140 241.25" version="1.1" x="0px" y="0px"><title>car insurance</title><desc>Created with Sketch.</desc><g stroke="none" stroke-width="1" fill="none" fill-rule="evenodd"><g transform="translate(-4442.000000, -304.000000)" fill="#000000" fill-rule="nonzero"><path d="M4505.76238,397 L4505.76238,377.597882 C4500.46434,379.214773 4495.92045,382.856072 4493.10438,387.842988 C4492.89949,388.205822 4492.51509,388.430209 4492.09841,388.430209 L4485.97869,388.430209 C4485.562,388.430209 4485.1776,388.205822 4484.97271,387.842988 C4481.09869,380.982554 4473.95472,376.66872 4466.07583,376.66872 C4458.19694,376.66872 4451.05297,380.982554 4447.17895,387.842988 C4446.97298,388.207733 4446.592,388.438965 4446.17337,388.453321 L4443.26099,388.553193 C4442.58804,388.57627 4442.02379,388.049443 4442.00072,387.376492 C4441.99981,387.35003 4441.99976,387.323545 4442.00058,387.29708 C4443.1275,350.799981 4470.81337,321.305767 4505.76417,318.142273 L4505.76503,311.621819 C4505.76558,307.412245 4509.17839,304.00007 4513.38797,304.000297 C4517.59712,304.000524 4521.00912,307.412899 4521.0089,311.622048 C4521.0089,311.622246 4521.0089,311.622444 4521.0089,311.622642 L4521.00799,318.44979 C4554.61337,322.874211 4580.86461,351.72259 4581.99939,387.215547 C4582.02016,387.865274 4581.51029,388.408823 4580.86056,388.429596 C4580.84803,388.429996 4580.83549,388.430197 4580.82296,388.430197 L4577.82957,388.430209 C4577.41288,388.430211 4577.02848,388.205824 4576.82359,387.842989 C4572.94955,380.982553 4565.80559,376.66872 4557.9267,376.66872 C4550.04781,376.66872 4542.90384,380.982554 4539.02982,387.842988 C4538.82493,388.205822 4538.44053,388.430209 4538.02384,388.430209 L4531.90412,388.430209 C4531.48744,388.430209 4531.10304,388.205822 4530.89815,387.842988 C4528.33046,383.295924 4524.3263,379.867575 4519.62376,378.072498 L4519.62376,397 L4533.25472,397 L4542.20893,397 C4547.7516,397 4554.08486,402.028715 4556.59983,408.446041 L4564.72336,429.120918 C4564.93533,429.095203 4565.14157,429.04663 4565.36786,429.04663 L4571.60659,429.04663 C4575.1327,429.040915 4578,432.286722 4578,436.301123 C4578,440.306952 4575.1327,443.555616 4571.60659,443.555616 L4570.03974,443.555616 C4570.03974,443.567045 4570.04547,443.572759 4570.04547,443.584188 C4570.89621,446.089974 4571.37171,448.824338 4571.37171,451.692991 L4571.37171,460.193234 C4571.37171,468.5049 4569.34082,475.679391 4564.74914,479.173776 L4564.74914,488.511186 C4564.74914,493.199891 4561.39203,497 4557.26438,497 L4550.4012,497 C4546.27356,497 4542.91931,493.194177 4542.91931,488.511186 L4542.91931,481.428127 L4482.09788,481.428127 L4482.09788,488.511186 C4482.09788,493.199891 4478.74363,497 4474.61312,497 L4467.74421,497 C4463.6137,497 4460.25945,493.194177 4460.25945,488.511186 L4460.25945,479.173776 C4455.6735,475.679391 4453.64262,468.510615 4453.64262,460.193234 L4453.64262,451.692991 C4453.64262,448.830052 4454.11238,446.095688 4454.95453,443.595617 C4454.95453,443.584188 4454.96312,443.572759 4454.96312,443.555616 L4453.39341,443.555616 C4449.86157,443.555616 4447,440.306952 4447,436.306837 C4447,432.295294 4449.86157,429.04663 4453.39341,429.04663 L4459.62928,429.04663 C4459.85557,429.04663 4460.06467,429.09806 4460.2795,429.120918 L4468.40017,408.451756 C4470.9667,401.922998 4477.15387,397 4482.79107,397 L4491.74528,397 L4505.76238,397 Z M4468.05357,432.454346 C4468.05357,439.303113 4558.14949,439.294543 4558.14949,432.45149 C4558.14949,431.568608 4557.98049,430.469528 4557.96903,430.39524 C4556.37354,423.975056 4550.24079,410.706106 4550.24079,410.706106 C4548.75702,406.928855 4545.03326,404.0002 4542.82192,404.0002 L4483.4012,404.0002 C4481.18985,404.0002 4477.46609,406.928855 4475.97945,410.71182 C4475.97945,410.71182 4470.58573,423.040744 4468.24262,430.400954 C4468.21971,430.469528 4468.05357,431.577178 4468.05357,432.454346 Z M4486.76786,462.339765 C4486.76786,457.192817 4482.57826,453.0016 4477.40846,453.0016 C4472.24543,453.0016 4468.05357,457.183686 4468.05357,462.339765 C4468.05357,467.489757 4472.24317,471.668798 4477.40846,471.668798 C4482.57826,471.671842 4486.76786,467.4928 4486.76786,462.339765 Z M4559.28571,462.339766 C4559.28571,457.192817 4555.10063,453.0016 4549.93083,453.0016 C4544.76554,453.0016 4540.57143,457.183686 4540.57143,462.339766 C4540.57143,467.489758 4544.75877,471.6688 4549.93083,471.6688 C4555.10289,471.6688 4559.28571,467.492802 4559.28571,462.339766 Z M4498.62612,460 C4497.79769,460 4497.12612,460.671573 4497.12612,461.5 C4497.12612,462.328427 4497.79769,463 4498.62612,463 L4527.70683,463 C4528.53526,463 4529.20683,462.328427 4529.20683,461.5 C4529.20683,460.671573 4528.53526,460 4527.70683,460 L4498.62612,460 Z M4498.62612,467 C4497.79769,467 4497.12612,467.671573 4497.12612,468.5 C4497.12612,469.328427 4497.79769,470 4498.62612,470 L4527.70683,470 C4528.53526,470 4529.20683,469.328427 4529.20683,468.5 C4529.20683,467.671573 4528.53526,467 4527.70683,467 L4498.62612,467 Z"/></g></g></svg>