<svg xmlns="http://www.w3.org/2000/svg" xmlns:xlink="http://www.w3.org/1999/xlink" xml:space="preserve" style="shape-rendering:geometricPrecision;text-rendering:geometricPrecision;image-rendering:optimizeQuality;" viewBox="0 0 173.397 216.74624999999997" x="0px" y="0px" fill-rule="evenodd" clip-rule="evenodd"><defs><style type="text/css">
   
    .fil1 {fill:none}
    .fil0 {fill:black}
   
  </style></defs><g><g><path class="fil0" d="M46.5796 160.552l50.7784 0 0 -5.4266 -11.4755 -2.0703 -27.862 0 -11.4409 2.0703 0 5.4266zm52.1214 2.6856l-53.4645 0c-0.7411,0 -1.3427,-0.6014 -1.3427,-1.3426l0.0006 -7.8923c0,-0.6503 0.4644,-1.2061 1.1042,-1.3215l12.6623 -2.2904c0.0803,-0.0142 0.1602,-0.0208 0.2371,-0.0208l28.1032 -0.0001c0.0803,0 0.1603,0.007 0.2372,0.0211l12.7001 2.29c0.6398,0.1156 1.1049,0.6716 1.1049,1.3219l0.0006 7.8921c0,0.7411 -0.6021,1.3427 -1.343,1.3426z"/><path class="fil0" d="M58.6924 153.055c-0.742,0 -1.3434,-0.6011 -1.3434,-1.3424l0.0003 -83.5531c0,-0.7411 0.601,-1.3426 1.3425,-1.3426 0.7417,0 1.3426,0.6015 1.3426,1.3428l0.0002 83.5527c0,0.7415 -0.6016,1.3429 -1.3422,1.3426zm26.5536 0c-0.7419,0 -1.3433,-0.6011 -1.3433,-1.3424l0.0003 -83.5531c0,-0.7411 0.6011,-1.3426 1.3424,-1.3426 0.7417,0 1.3427,0.6015 1.3427,1.3428l0 83.5527c0,0.7415 -0.6014,1.3429 -1.3421,1.3426z"/><path class="fil0" d="M50.1428 66.8166l43.652 0 0 -6.4793c0,-3.5738 -2.9093,-6.4793 -6.4793,-6.4793l-30.6939 -0.0004c-3.5734,0 -6.4792,2.9062 -6.4792,6.4797l0.0004 6.4793zm44.995 2.6851l-46.3381 0c-0.7411,0 -1.3428,-0.601 -1.3428,-1.3423l0.0007 -7.8221c0,-5.0529 4.1113,-9.1647 9.164,-9.1647l30.6943 -0.0001c5.0525,0 9.1643,4.1121 9.1643,9.1648l0.0006 7.8219c0,0.7411 -0.6021,1.3429 -1.343,1.3425z"/><path class="fil0" d="M94.1795 142.792l-8.9335 0c-0.7419,0 -1.3433,-0.6011 -1.3433,-1.3424 0.0003,-0.7413 0.6014,-1.3426 1.3427,-1.3426l7.5919 -0.0001 0 -6.8503 -7.5913 0c-0.7419,0 -1.3433,-0.6011 -1.3433,-1.3423 0.0003,-0.7449 0.6014,-1.3428 1.3427,-1.3428l8.9341 -0.0001c0.7412,0 1.3426,0.5981 1.3426,1.3429l0.0004 9.5351c0,0.7415 -0.6018,1.343 -1.343,1.3426z"/><path class="fil0" d="M106.964 134.82l-12.784 0c-0.7411,0 -1.3429,-0.6013 -1.3429,-1.3426 0.0007,-0.7415 0.6015,-1.3428 1.3428,-1.3428l12.7841 -0.0002c2.5388,0 4.6084,-2.0663 4.6084,-4.6084l0.0003 -58.1849c0,-3.6537 1.4263,-7.0909 4.0173,-9.6819 2.5387,-2.5387 5.9024,-3.9583 9.4933,-4.0072 0.0632,-0.0105 0.126,-0.014 0.1924,-0.014l8.2033 -0.0001c3.6544,0 7.0912,1.4267 9.6857,4.0213 2.5915,2.591 4.0176,6.0282 4.0176,9.6823l0.0003 28.5677c0,0.7411 -0.6016,1.3428 -1.3429,1.3428 -0.7412,-0.0002 -1.3428,-0.6015 -1.3428,-1.3428l0.0005 -28.5681c0,-2.9369 -1.1474,-5.6992 -3.2313,-7.7832 -2.0871,-2.0878 -4.8499,-3.2345 -7.7872,-3.2345l-8.0208 0c-0.0599,0.0067 -0.1194,0.0141 -0.1824,0.0141 -2.9434,-0.0003 -5.71,1.1434 -7.787,3.2204 -2.0837,2.084 -3.2309,4.8464 -3.2309,7.7836l0.0001 58.1845c0,4.0211 -3.273,7.2941 -7.2939,7.294zm0 6.4092l-12.784 0c-0.7411,0 -1.3429,-0.6012 -1.3429,-1.3425 0.0007,-0.7416 0.6015,-1.3427 1.3428,-1.3427l12.7841 -0.0003c6.0736,0 11.0178,-4.944 11.0178,-11.0177l0.0006 -58.1849c0,-1.9406 0.7581,-3.7691 2.1393,-5.1503 1.3884,-1.3919 3.2204,-2.1539 5.154,-2.1539 0.0636,0 0.1224,0.0035 0.1854,0.0105l8.0179 -0.0002c1.9409,0 3.7729,0.7625 5.1505,2.1436 1.3819,1.381 2.1436,3.21 2.1436,5.1507l0.0007 28.5677c0,0.7411 -0.6022,1.3428 -1.3435,1.3428 -0.7406,-0.0002 -1.3427,-0.6015 -1.3427,-1.3428l0.0002 -28.5681c0,-1.2238 -0.4828,-2.3774 -1.357,-3.2515 -0.8703,-0.8742 -2.028,-1.3567 -3.2519,-1.3567l-8.2026 -0.0002c-0.0558,0 -0.1089,-0.0033 -0.1649,-0.0103 -1.1536,0.0418 -2.2483,0.5244 -3.091,1.3672 -0.8737,0.8739 -1.3533,2.028 -1.3533,3.2519l0.0004 58.1845c0,7.556 -6.1475,13.7034 -13.7035,13.7032z"/><path class="fil0" d="M148.218 99.2516l0.0031 0 -0.0031 0zm-10.8226 6.0878l10.4796 0 0 -6.0878 -10.4796 0 0 6.0878zm10.8226 2.6852l-11.1647 0c-1.2904,0 -2.3435,-1.0488 -2.3435,-2.3425l0.0005 -6.7732c0,-1.2938 1.0519,-2.3427 2.3423,-2.3427l11.1654 -0.0002c1.2902,0 2.3422,1.0493 2.3422,2.3431l0.0007 6.7729c0,1.2938 -1.0532,2.3429 -2.3429,2.3426z"/><path class="fil0" d="M146.165 114.13l-7.0596 0c-0.7419,0 -1.3435,-0.6012 -1.3435,-1.3425l0.0005 -6.1053c0,-0.7415 0.6009,-1.3426 1.3423,-1.3426 0.7419,0 1.3428,0.6014 1.3428,1.3427l0.0002 4.7625 4.3742 0 0 -4.7626c0,-0.7415 0.6014,-1.3426 1.3426,-1.3426 0.7416,0 1.3427,0.6014 1.3427,1.3427l0.0007 6.1051c0,0.7411 -0.6021,1.3429 -1.3429,1.3426z"/><path class="fil0" d="M142.633 121.665c-0.7411,0 -1.343,-0.6013 -1.343,-1.3426l0.0001 -7.5355c0,-0.7415 0.6012,-1.3426 1.3425,-1.3426 0.7455,0 1.3428,0.6014 1.3428,1.3427l0.0007 7.535c0,0.7415 -0.5987,1.3431 -1.3431,1.343z"/><path class="fil0" d="M66.6259 53.8576c-0.7411,0 -1.343,-0.601 -1.343,-1.3423l0.0001 -24.0327c0,-0.7451 0.6013,-1.3427 1.3426,-1.3427 0.7454,-0.0003 1.3428,0.598 1.3428,1.3428l0.0006 24.0324c0,0.7415 -0.5986,1.3429 -1.3431,1.3425zm10.6826 0c-0.7411,0 -1.3433,-0.601 -1.3433,-1.3423l0.0002 -24.0327c0,-0.7451 0.6013,-1.3427 1.3426,-1.3427 0.7448,-0.0003 1.3426,0.598 1.3426,1.3428l0 24.0324c0,0.7415 -0.5978,1.3429 -1.3421,1.3425z"/><path class="fil0" d="M59.8741 27.1396l24.1902 0 0 -14.2941 -24.1902 0 0 14.2941zm25.5323 2.6855l-26.8754 0c-0.7449,0 -1.3429,-0.6011 -1.3429,-1.3424l0 -16.9801c0,-0.7412 0.598,-1.3425 1.3427,-1.3425l26.8756 -0.0001c0.7411,0 1.3426,0.6015 1.3426,1.3428l0.0005 16.9798c0,0.7411 -0.602,1.3427 -1.3431,1.3425z"/><path class="fil0" d="M114.894 26.1955l-29.4875 0c-0.7411,0 -1.3428,-0.6011 -1.3428,-1.3424 0.0007,-0.7413 0.6013,-1.3427 1.3426,-1.3427l29.4877 -0.0001c1.9409,0 3.521,-1.5769 3.521,-3.5176 0.0005,-1.9408 -1.5806,-3.5176 -3.5212,-3.5176l-29.4873 -0.0003c-0.7411,0 -1.3428,-0.6011 -1.3428,-1.3424 0.0007,-0.7413 0.6013,-1.3427 1.3426,-1.3427l29.4877 -0.0001c3.4231,0 6.2064,2.7834 6.2064,6.2031 0.0003,3.4197 -2.7834,6.2031 -6.2064,6.2028z"/><path class="fil0" d="M58.531 26.1955l-29.4905 0c-3.42,0 -6.2036,-2.783 -6.2036,-6.2028 0.0001,-3.42 2.7833,-6.203 6.203,-6.203l29.4911 -0.0001c0.7411,0 1.3426,0.6015 1.3426,1.3428 0.0005,0.741 -0.6016,1.3427 -1.3428,1.3427l-29.4903 -0.0003c-1.9378,0 -3.5182,1.5774 -3.5182,3.5179 0.0007,1.9406 1.5804,3.5177 3.5176,3.5177l29.4911 -0.0001c0.7411,0 1.3426,0.6016 1.3426,1.3428 0.0005,0.7413 -0.6016,1.3427 -1.3426,1.3424z"/></g></g><rect class="fil1" width="173.397" height="173.397"/></svg>