<svg xmlns="http://www.w3.org/2000/svg" xmlns:xlink="http://www.w3.org/1999/xlink" version="1.1" x="0px" y="0px" viewBox="0 0 48 60" style="enable-background:new 0 0 48 48;" xml:space="preserve"><style type="text/css">
	.st0{stroke:#000000;stroke-width:0.5;stroke-miterlimit:10;}
	.st1{fill:none;stroke:#000000;stroke-width:2;stroke-miterlimit:10;}
</style><g><path d="M23.5,30.7c4.8,0,8.6-3.9,8.6-8.6s-3.9-8.6-8.6-8.6c-4.8,0-8.6,3.9-8.6,8.6S18.7,30.7,23.5,30.7z M23.5,15.4   c3.7,0,6.6,3,6.6,6.6s-3,6.6-6.6,6.6s-6.6-3-6.6-6.6S19.8,15.4,23.5,15.4z"/><path d="M23.5,27.2c2.8,0,5.1-2.3,5.1-5.1S26.3,17,23.5,17s-5.1,2.3-5.1,5.1S20.6,27.2,23.5,27.2z M23.5,19c1.7,0,3.1,1.4,3.1,3.1   s-1.4,3.1-3.1,3.1s-3.1-1.4-3.1-3.1S21.7,19,23.5,19z"/><path d="M42.1,0H5.9c-2.2,0-4,1.8-4,4v36.1c0,2.2,1.8,4,4,4h1.4V47c0,0.6,0.4,1,1,1h6.9c0.6,0,1-0.4,1-1v-2.9h15.4V47   c0,0.6,0.4,1,1,1h6.9c0.6,0,1-0.4,1-1v-2.9h1.4c2.2,0,4-1.8,4-4V4C46.1,1.8,44.3,0,42.1,0z M14.3,46H9.4v-1.9h4.9V46z M38.6,46   h-4.9v-1.9h4.9V46z M44.1,40.1c0,1.1-0.9,2-2,2H5.9c-1.1,0-2-0.9-2-2V4c0-1.1,0.9-2,2-2h36.1c1.1,0,2,0.9,2,2V40.1z"/><path d="M41.4,3.7H8.1c-0.6,0-1,0.4-1,1V9H5.7c-0.6,0-1,0.4-1,1v3.6c0,0.6,0.4,1,1,1h1.4v14.8H5.7c-0.6,0-1,0.4-1,1v3.6   c0,0.6,0.4,1,1,1h1.4v4.4c0,0.6,0.4,1,1,1h33.3c0.6,0,1-0.4,1-1V4.7C42.4,4.1,41.9,3.7,41.4,3.7z M6.7,11H10v1.6H6.7V11z M6.7,31.5   H10v1.6H6.7V31.5z M40.4,38.5H9.1v-3.4H11c0.6,0,1-0.4,1-1v-3.6c0-0.6-0.4-1-1-1H9.1V14.7H11c0.6,0,1-0.4,1-1V10c0-0.6-0.4-1-1-1   H9.1V5.7h31.3V38.5z"/><path d="M35.9,26.5H38c0.6,0,1-0.4,1-1s-0.4-1-1-1h-1.1v-5H38c0.6,0,1-0.4,1-1s-0.4-1-1-1h-2.1c-0.6,0-1,0.4-1,1v7   C34.9,26.1,35.3,26.5,35.9,26.5z"/></g></svg>