<svg xmlns="http://www.w3.org/2000/svg" xmlns:xlink="http://www.w3.org/1999/xlink" version="1.1" x="0px" y="0px" fill="#52ab98" viewBox="0 0 100 125" style="enable-background:new 0 0 100 100;" xml:space="preserve"><g><path d="M53.9,40.7c0.4,0,0.8-0.1,1.1-0.4l6.1-6.1c0.6-0.6,0.6-1.5,0-2.1s-1.5-0.6-2.1,0l-6.1,6.1c-0.6,0.6-0.6,1.5,0,2.1   C53.1,40.6,53.5,40.7,53.9,40.7z"/><path d="M90.6,44.7c-0.8,0-1.5,0.7-1.5,1.5v17.3H67.7c-1.1-1.1-2.6-1.7-4.3-1.7c-0.1,0-0.2,0-0.3,0L51.9,50.6l15.4-15.4   c1.4-1.4,1.4-3.6,0-4.9l-4.7-4.7L63,25c0.5-0.5,0.7-1.1,0.7-1.8S63.5,22,63,21.5L55.6,14c-1.2-1.2-2.9-1.9-4.6-1.9   s-3.4,0.7-4.6,1.9L8.6,51.7C8,52.4,7.8,53.3,8,54.2s0.9,1.5,1.8,1.8l4.2,1c0,0.1,0.1,0.1,0.1,0.2l0.4,0.4l-2.2,2.2   c-1.4,1.4-1.4,3.6,0,4.9l6.3,6.3c0.7,0.7,1.6,1,2.5,1s1.8-0.3,2.5-1l2.2-2.2l1.4,1.4c0.7,0.7,1.6,1,2.5,1s1.8-0.3,2.5-1l13.4-13.4   l11.8,11.8c0.4,3,3,5.4,6.1,5.4c1.5,0,2.8-0.5,3.9-1.4h21.8v13.6c0,0.8,0.7,1.5,1.5,1.5s1.5-0.7,1.5-1.5v-40   C92.1,45.4,91.4,44.7,90.6,44.7z M48.5,16.1c1.3-1.3,3.6-1.3,5,0l7.1,7.1L27,56.9C26.9,57,26.7,57,26.5,57l-15.1-3.8L48.5,16.1z    M21.5,68.9c-0.2,0.2-0.5,0.2-0.7,0l-6.3-6.3c-0.2-0.2-0.2-0.5,0-0.7l2.2-2.2l3.7,3.7l3.3,3.3L21.5,68.9z M30.1,68.2   c-0.2,0.2-0.5,0.2-0.7,0L28,66.8l0,0l-5.4-5.4l-3-3l6.2,1.5c0.3,0.1,0.6,0.1,0.8,0.1c0.9,0,1.8-0.4,2.5-1l31.4-31.4l4.7,4.7   c0.2,0.2,0.2,0.5,0,0.7L48.7,49.5l0,0l0,0l-4.2,4.2l0,0l0,0L30.1,68.2z M49.8,52.7L60,62.9c-0.8,0.6-1.5,1.3-2,2.2L47.7,54.8   L49.8,52.7z M60.3,68c0-1.7,1.4-3.1,3.1-3.1c1.7,0,3.1,1.4,3.1,3.1s-1.4,3.2-3.1,3.2C61.7,71.1,60.3,69.7,60.3,68z M69.3,69.7   c0.2-0.6,0.3-1.2,0.3-1.8c0-0.5-0.1-1-0.2-1.4h19.7v3.2C89.1,69.7,69.3,69.7,69.3,69.7z"/></g></svg>