<svg xmlns="http://www.w3.org/2000/svg" xmlns:xlink="http://www.w3.org/1999/xlink" version="1.1" x="0px" y="0px" viewBox="0 0 64 80" style="enable-background:new 0 0 64 64;" xml:space="preserve"><path d="M46.985,23.418C46.674,11.004,36.487,1,24,1C11.318,1,1,11.317,1,24c0,12.347,9.78,22.449,22,22.975V51h-1  c-0.552,0-1,0.447-1,1v3h-3c-0.552,0-1,0.447-1,1v6c0,0.553,0.448,1,1,1h14h11c11.028,0,20-8.972,20-20  C63,33.388,56.311,25.295,46.985,23.418z M3,24C3,12.421,12.42,3,24,3s21,9.421,21,21c0,9.731-6.663,18.106-16,20.383V43  c0-0.975,0.109-1.935,0.305-2.87l0.008,0.023C36.303,37.855,41,31.364,41,24c0-9.374-7.626-17-17-17S7,14.626,7,24  c0,9.075,7.153,16.49,16.115,16.955C23.047,41.63,23,42.31,23,43v1.949C11.886,44.422,3,35.242,3,24z M32.335,33.961  C35.297,31.481,37,27.872,37,24c0-7.168-5.832-13-13-13s-13,5.832-13,13c0,7.138,5.783,12.946,12.91,12.995  c-0.201,0.645-0.359,1.306-0.495,1.975C15.416,38.66,9,32.074,9,24c0-8.271,6.729-15,15-15s15,6.729,15,15  c0,6.005-3.543,11.345-8.948,13.722C30.607,36.36,31.374,35.093,32.335,33.961z M32.448,16.966c1.391,1.667,2.294,3.751,2.501,6.034  h-8.535L32.448,16.966z M25,21.586v-8.535c2.283,0.207,4.366,1.111,6.034,2.501L25,21.586z M23,21.586l-6.034-6.034  c1.667-1.391,3.751-2.294,6.034-2.501V21.586z M15.552,16.966L21.586,23h-8.535C13.258,20.717,14.161,18.634,15.552,16.966z   M21.586,25l-6.034,6.034c-1.391-1.667-2.294-3.751-2.501-6.034H21.586z M23,26.414v8.535c-2.283-0.207-4.366-1.111-6.034-2.501  L23,26.414z M25,34.239v-7.825l3.156,3.156C26.888,30.969,25.824,32.539,25,34.239z M29.576,28.162L26.414,25h7.859  C32.535,25.839,30.964,26.912,29.576,28.162z M25,43c0-6.747,3.687-12.775,9.534-15.878c-0.396,1.341-1.03,2.599-1.902,3.7  c-0.629,0.536-1.197,1.125-1.728,1.74c-0.009,0.008-0.017,0.016-0.027,0.024l0.003,0.004C28.402,35.471,27,39.138,27,43v8h-2V43z   M23,53h6v2h-6V53z M19,57h8v4h-8V57z M31,61h-2v-4h2V61z M31,55v-3c0-0.553-0.448-1-1-1h-1v-4.568  c8.674-1.923,15.309-8.623,17.338-17.018C52.545,30.934,57,36.553,57,43c0,7.72-6.28,14-14,14H33v-1c0-0.553-0.448-1-1-1H31z M43,61  H33v-2h10c8.822,0,16-7.178,16-16c0-7.398-5.135-13.844-12.277-15.55c0.1-0.66,0.171-1.328,0.213-2.004  C55.146,27.265,61,34.469,61,43C61,52.925,52.925,61,43,61z"/></svg>